# xmcd
#
# Track frame offsets:
#	150
#	6897
#	16888
#	25910
#	33484
#	45990
#	56773
#	66617
#	73757
#	81223
#	88164
#	99654
#	107273
#	113862
#	125365
#	135803
#	146613
#	156551
#	164456
#	177028
#	189989
#	201521
#	212191
#	219018
#	229208
#	241241
#	246742
#	259544
#	269534
#	280217
#	288680
#	303274
#
# Disc length: 4207 seconds
#
# Revision: 0
# Processed by: cddbd v1.5.2PL0 Copyright (c) Steve Scherf et al.
# Submitted via: FairStars CD Ripper 1.50
#
DISCID=d8106d20
DTITLE=Sons Of The Pioneers - Western Harmony And Hot Swing
DYEAR=1940
DGENRE=Country
TTITLE0=Rise And Shine
TTITLE1=Lone Buckaroo
TTITLE2=Riding The Rocky Range
TTITLE3=Get Along Pinto Pony
TTITLE4=Cottage In The Clouds
TTITLE5=Cielito Lindo
TTITLE6=Sunset On The Trail
TTITLE7=Sally Goodin'
TTITLE8=Come And Get It
TTITLE9=Where The Rio Rolls Along
TTITLE10=Ridin' The Range With You
TTITLE11=Cody Of The Pony Express
TTITLE12=Ridin' On The Sunshine Trail
TTITLE13=I Belong To The Range
TTITLE14=On The Rhythm Range
TTITLE15=She's The Lily Of Hillbilly Valley
TTITLE16=When The Prairie Sun Says Good Morning
TTITLE17=Boggy Road To Texas
TTITLE18=Curly Joe From Idaho
TTITLE19=Blue Mountain Sweetheart
TTITLE20=No Good Son Of A Gun
TTITLE21=A Cowboy's Prayer
TTITLE22=Great Big Taters In The Sandy Land
TTITLE23=When A Cowboy Starts To Courtin'
TTITLE24=Wonder Valley
TTITLE25=Bon Ton Schottische
TTITLE26=We Sat Beneath The Maple On The Hill
TTITLE27=The Quilting Party
TTITLE28=What Wonderful Joy
TTITLE29=Moonlight On The Trail
TTITLE30=What You Gonna Say To Peter
TTITLE31=Rocky Road In The Rockies
EXTD=
EXTT0=
EXTT1=
EXTT2=
EXTT3=
EXTT4=
EXTT5=
EXTT6=
EXTT7=
EXTT8=
EXTT9=
EXTT10=
EXTT11=
EXTT12=
EXTT13=
EXTT14=
EXTT15=
EXTT16=
EXTT17=
EXTT18=
EXTT19=
EXTT20=
EXTT21=
EXTT22=
EXTT23=
EXTT24=
EXTT25=
EXTT26=
EXTT27=
EXTT28=
EXTT29=
EXTT30=
EXTT31=
PLAYORDER=
